<svg width="36" height="37" viewBox="0 0 36 37" fill="none" xmlns="http://www.w3.org/2000/svg">
<path d="M35.124 9.7366C35.29 9.6646 35.4407 9.5626 35.5634 9.433C35.8167 9.1636 35.9253 8.8084 35.8607 8.4598L35.4167 6.0586C35.3651 5.77837 35.2045 5.52377 34.9635 5.34032C34.7226 5.15687 34.417 5.05652 34.1014 5.0572H33.5941C32.5848 2.8096 31.5095 1.4806 30.9369 0.878802C30.7493 0.683632 30.5172 0.527096 30.2564 0.419837C29.9957 0.312578 29.7123 0.25711 29.4256 0.257202H6.57376C5.99311 0.257202 5.44247 0.483402 5.05981 0.881202C4.48983 1.4812 3.41454 2.8096 2.40524 5.0572H1.89793C1.24462 5.0572 0.691308 5.4784 0.582645 6.0598L0.138662 8.4598C0.106715 8.63172 0.116765 8.80784 0.168111 8.97591C0.219457 9.14397 0.310868 9.29996 0.435984 9.433C0.558646 9.5632 0.709307 9.6646 0.875301 9.7366C0.296656 12.2884 0 15.148 0 18.2572C0 21.3664 0.296656 24.226 0.875301 26.7778C0.706967 26.8504 0.557332 26.9538 0.435984 27.0814C0.310829 27.2144 0.219393 27.3704 0.168045 27.5385C0.116697 27.7066 0.10667 27.8827 0.138662 28.0546L0.582645 30.4558C0.634216 30.736 0.794833 30.9906 1.03579 31.1741C1.27674 31.3575 1.58233 31.4579 1.89793 31.4572H2.40524C3.41454 33.7048 4.48983 35.0338 5.06248 35.6356C5.25005 35.8308 5.48211 35.9873 5.74289 36.0946C6.00366 36.2018 6.28704 36.2573 6.57376 36.2572H29.4262C30.0069 36.2572 30.5575 36.031 30.9402 35.6332C31.5102 35.0332 32.5855 33.7048 33.5948 31.4572H34.1021C34.7554 31.4572 35.3087 31.036 35.4174 30.4546L35.8613 28.0546C35.8933 27.8827 35.8832 27.7066 35.8319 27.5385C35.7805 27.3704 35.6891 27.2145 35.564 27.0814C35.4428 26.9536 35.2932 26.8502 35.1247 26.7778C35.7033 24.226 36 21.3664 36 18.2572C36 15.148 35.7027 12.2884 35.124 9.7366ZM2.20992 26.6572C1.63061 24.1552 1.33395 21.3346 1.33395 18.2572C1.33395 15.1798 1.63061 12.3592 2.20992 9.8572H7.83571C7.56972 11.929 7.41039 14.1556 7.36173 16.501C5.09048 16.783 3.33388 18.5368 3.33388 20.6572C3.33388 22.8604 5.23047 24.6694 7.63038 24.8404C7.68705 25.4356 7.75505 26.041 7.83371 26.6572H2.20992ZM8.00037 23.6572C6.16244 23.6572 4.66716 22.3114 4.66716 20.6572C4.66716 19.003 6.16244 17.6572 8.00037 17.6572C9.8383 17.6572 11.3336 19.003 11.3336 20.6572C11.3336 22.3114 9.8383 23.6572 8.00037 23.6572ZM9.17566 26.6572C9.09357 26.028 9.02223 25.3978 8.96167 24.7666C11.0749 24.3664 12.6669 22.6762 12.6669 20.6572C12.6669 18.5542 10.9389 16.8124 8.69501 16.5088C8.74368 14.155 8.90567 11.9242 9.17699 9.8572H17.3334V26.6572H9.17566ZM18.6666 9.8572H26.8217C27.1563 12.3934 27.333 15.2086 27.333 18.2572C27.333 21.3058 27.157 24.121 26.8217 26.6572H18.6666V9.8572ZM28.163 9.8572H33.7901C34.3694 12.3592 34.666 15.1798 34.666 18.2572C34.666 21.3346 34.3694 24.1552 33.7901 26.6572H28.163C28.4916 24.1102 28.6663 21.2974 28.6663 18.2572C28.6663 15.217 28.4916 12.4042 28.163 9.8572ZM29.9262 1.6612C30.4055 2.1658 31.2822 3.2368 32.1555 5.0572H27.2637C26.8163 3.3394 26.3457 2.1736 25.9997 1.4572H29.4262C29.6196 1.4572 29.8022 1.5322 29.9262 1.6612ZM10.1063 5.0572C10.6483 3.0634 11.2043 1.9312 11.4722 1.4572H17.3327V5.0572H10.1063ZM18.6666 1.4572H24.5271C24.7957 1.933 25.3511 3.0646 25.893 5.0572H18.6666V1.4572ZM6.07044 1.6636C6.13295 1.59869 6.21026 1.54666 6.29711 1.51104C6.38396 1.47543 6.47832 1.45706 6.57376 1.4572H10.0003C9.65431 2.1736 9.18366 3.3394 8.73634 5.0572H3.84452C4.71716 3.2368 5.59379 2.1658 6.07111 1.6636H6.07044ZM1.89793 6.2572H34.1014L34.5467 8.6572H1.45461L1.89793 6.2572ZM6.07311 34.8532C5.59379 34.3486 4.71716 33.2776 3.84386 31.4572H8.73568C9.18299 33.175 9.65364 34.3408 9.99963 35.0572H6.57309C6.47828 35.0574 6.38453 35.0393 6.29816 35.0041C6.21179 34.9689 6.13482 34.9175 6.07244 34.8532H6.07311ZM25.893 31.4572C25.3511 33.4498 24.7957 34.5814 24.5271 35.0572H18.6666V31.4572H25.893ZM17.3334 35.0572H11.4729C11.2043 34.5814 10.6489 33.4498 10.107 31.4572H17.3334V35.0572ZM29.9296 34.8508C29.8671 34.9157 29.7897 34.9677 29.7029 35.0034C29.616 35.039 29.5217 35.0573 29.4262 35.0572H25.9997C26.3457 34.3408 26.8163 33.175 27.2637 31.4572H32.1555C31.2828 33.2776 30.4069 34.3486 29.9296 34.8508ZM34.1021 30.2572H1.8986L1.45461 27.8572H34.5454L34.1021 30.2572Z" fill="#D0946B"/>
<path d="M4.66713 8.05718C5.03531 8.05718 5.33377 7.78855 5.33377 7.45718C5.33377 7.12581 5.03531 6.85718 4.66713 6.85718C4.29895 6.85718 4.00049 7.12581 4.00049 7.45718C4.00049 7.78855 4.29895 8.05718 4.66713 8.05718Z" fill="#D0946B"/>
<path d="M10.0003 8.05718C10.3685 8.05718 10.667 7.78855 10.667 7.45718C10.667 7.12581 10.3685 6.85718 10.0003 6.85718C9.63214 6.85718 9.33368 7.12581 9.33368 7.45718C9.33368 7.78855 9.63214 8.05718 10.0003 8.05718Z" fill="#D0946B"/>
<path d="M15.3335 8.05718C15.7016 8.05718 16.0001 7.78855 16.0001 7.45718C16.0001 7.12581 15.7016 6.85718 15.3335 6.85718C14.9653 6.85718 14.6668 7.12581 14.6668 7.45718C14.6668 7.78855 14.9653 8.05718 15.3335 8.05718Z" fill="#D0946B"/>
<path d="M20.6666 8.05718C21.0348 8.05718 21.3332 7.78855 21.3332 7.45718C21.3332 7.12581 21.0348 6.85718 20.6666 6.85718C20.2984 6.85718 19.9999 7.12581 19.9999 7.45718C19.9999 7.78855 20.2984 8.05718 20.6666 8.05718Z" fill="#D0946B"/>
<path d="M25.9996 8.05718C26.3678 8.05718 26.6663 7.78855 26.6663 7.45718C26.6663 7.12581 26.3678 6.85718 25.9996 6.85718C25.6315 6.85718 25.333 7.12581 25.333 7.45718C25.333 7.78855 25.6315 8.05718 25.9996 8.05718Z" fill="#D0946B"/>
<path d="M31.3328 8.05718C31.701 8.05718 31.9995 7.78855 31.9995 7.45718C31.9995 7.12581 31.701 6.85718 31.3328 6.85718C30.9647 6.85718 30.6662 7.12581 30.6662 7.45718C30.6662 7.78855 30.9647 8.05718 31.3328 8.05718Z" fill="#D0946B"/>
<path d="M4.66713 29.6573C5.03531 29.6573 5.33377 29.3886 5.33377 29.0573C5.33377 28.7259 5.03531 28.4573 4.66713 28.4573C4.29895 28.4573 4.00049 28.7259 4.00049 29.0573C4.00049 29.3886 4.29895 29.6573 4.66713 29.6573Z" fill="#D0946B"/>
<path d="M10.0003 29.6573C10.3685 29.6573 10.667 29.3886 10.667 29.0573C10.667 28.7259 10.3685 28.4573 10.0003 28.4573C9.63214 28.4573 9.33368 28.7259 9.33368 29.0573C9.33368 29.3886 9.63214 29.6573 10.0003 29.6573Z" fill="#D0946B"/>
<path d="M15.3335 29.6573C15.7016 29.6573 16.0001 29.3886 16.0001 29.0573C16.0001 28.7259 15.7016 28.4573 15.3335 28.4573C14.9653 28.4573 14.6668 28.7259 14.6668 29.0573C14.6668 29.3886 14.9653 29.6573 15.3335 29.6573Z" fill="#D0946B"/>
<path d="M20.6666 29.6573C21.0348 29.6573 21.3332 29.3886 21.3332 29.0573C21.3332 28.7259 21.0348 28.4573 20.6666 28.4573C20.2984 28.4573 19.9999 28.7259 19.9999 29.0573C19.9999 29.3886 20.2984 29.6573 20.6666 29.6573Z" fill="#D0946B"/>
<path d="M25.9996 29.6573C26.3678 29.6573 26.6663 29.3886 26.6663 29.0573C26.6663 28.7259 26.3678 28.4573 25.9996 28.4573C25.6315 28.4573 25.333 28.7259 25.333 29.0573C25.333 29.3886 25.6315 29.6573 25.9996 29.6573Z" fill="#D0946B"/>
<path d="M31.3328 29.6573C31.701 29.6573 31.9995 29.3886 31.9995 29.0573C31.9995 28.7259 31.701 28.4573 31.3328 28.4573C30.9647 28.4573 30.6662 28.7259 30.6662 29.0573C30.6662 29.3886 30.9647 29.6573 31.3328 29.6573Z" fill="#D0946B"/>
</svg>
