<svg width="40" height="41" viewBox="0 0 40 41" fill="none" xmlns="http://www.w3.org/2000/svg">
<path d="M36.8096 37.0669C35.9671 37.9094 34.6012 37.9094 33.7587 37.0669L15.6473 18.9555L18.6982 15.9046L36.8096 34.016C37.6521 34.8585 37.6521 36.2244 36.8096 37.0669Z" fill="#D0946B"/>
<path d="M3.19029 37.067C4.03279 37.9095 5.39872 37.9095 6.24122 37.067L24.3526 18.9556L21.3017 15.9047L3.19029 34.0161C2.34779 34.8586 2.34779 36.2245 3.19029 37.067Z" fill="#D0946B"/>
<path d="M29.7328 8.40558C28.1572 8.2523 26.7141 8.83589 25.7064 9.85183C24.792 7.59761 22.5823 6.00714 20 6.00714C17.4176 6.00714 15.208 7.59761 14.2936 9.85183C13.2859 8.83573 11.8428 8.25214 10.2672 8.40558C7.9614 8.62995 6.08374 10.4775 5.82686 12.7798C5.49218 15.7806 7.83187 18.3214 10.765 18.3214V33.1564C10.765 33.3337 10.7999 33.5094 10.8678 33.6733C10.9357 33.8372 11.0352 33.9861 11.1606 34.1115C11.2861 34.2369 11.435 34.3364 11.5988 34.4043C11.7627 34.4722 11.9384 34.5071 12.1158 34.5071H27.8842C28.0616 34.5071 28.2372 34.4722 28.4011 34.4043C28.565 34.3364 28.7139 34.2369 28.8394 34.1115C28.9648 33.9861 29.0643 33.8372 29.1322 33.6733C29.2001 33.5094 29.235 33.3337 29.235 33.1564V18.3214C32.1681 18.3214 34.5078 15.7806 34.1731 12.7798C33.9162 10.4773 32.0387 8.6298 29.7328 8.40558Z" fill="white"/>
<path d="M14.8173 33.1562V18.3228C11.8835 18.3228 9.54414 15.7808 9.87914 12.7795C10.0763 11.0155 11.2245 9.51624 12.7913 8.8139C12.0323 8.47077 11.1732 8.31687 10.2682 8.40593C7.96117 8.63015 6.08367 10.478 5.82711 12.7795C5.49211 15.7808 7.83148 18.3228 10.7652 18.3228V33.1562C10.7654 33.5145 10.9077 33.858 11.161 34.1113C11.4143 34.3645 11.7578 34.5069 12.116 34.507H16.1682C15.4224 34.5069 14.8173 33.9019 14.8173 33.1562Z" fill="white"/>
<path d="M34.173 12.7794C33.9164 10.4778 32.0389 8.63002 29.7319 8.4058C28.8269 8.31659 27.9678 8.47065 27.2088 8.81377C28.7756 9.51612 29.9236 11.0155 30.1209 12.7794C30.4559 15.7806 28.1164 18.3227 25.1828 18.3227V33.1561C25.1827 33.5143 25.0403 33.8578 24.787 34.1111C24.5337 34.3644 24.1902 34.5068 23.832 34.5069H27.8842C28.2424 34.5068 28.5859 34.3644 28.8392 34.1111C29.0925 33.8578 29.2349 33.5143 29.235 33.1561V18.3227C32.1686 18.3227 34.508 15.7808 34.173 12.7794Z" fill="white"/>
<path d="M18.0479 25.1739C18.7461 24.6855 19.2029 23.8758 19.2029 22.9591C19.2029 21.4669 17.9932 20.257 16.5009 20.257C15.0086 20.257 13.7989 21.4667 13.7989 22.9591C13.7989 23.8758 14.2559 24.6853 14.9539 25.1739C13.7975 25.745 13.0018 26.9356 13.0018 28.3125V29.7705H20V28.3125C20 26.9356 19.2042 25.745 18.0479 25.1739Z" fill="#F1E2B8"/>
<path d="M16.5304 25.1736C15.3742 25.7444 14.5784 26.9355 14.5784 28.3125V29.7705H13.0015V28.3125C13.0015 26.9355 13.7973 25.7444 14.9536 25.1736C14.5969 24.9248 14.3056 24.5935 14.1046 24.2078C13.9037 23.8222 13.7989 23.3936 13.7993 22.9588C13.7993 21.467 15.0082 20.2572 16.5009 20.2572C16.7753 20.2572 17.0401 20.2981 17.2893 20.3749C16.1814 20.7113 15.3762 21.7414 15.3762 22.9588C15.3758 23.3936 15.4805 23.8222 15.6815 24.2078C15.8825 24.5935 16.1737 24.9248 16.5304 25.1736Z" fill="#F1E2B8"/>
<path d="M21.5471 15.6607C22.2453 15.1721 22.7021 14.3625 22.7021 13.4458C22.7021 11.9536 21.4924 10.7438 20.0001 10.7438C18.5079 10.7438 17.2981 11.9535 17.2981 13.4458C17.2981 14.3625 17.7551 15.1721 18.4531 15.6607C17.2967 16.2317 16.501 17.4224 16.501 18.7992V20.2572H23.499V18.7992C23.4992 17.4222 22.7035 16.2316 21.5471 15.6607Z" fill="#F1E2B8"/>
<path d="M20.0296 15.6604C18.8734 16.2311 18.0776 17.4222 18.0776 18.7993V20.2572H16.5007V18.7993C16.5007 17.4222 17.2965 16.2311 18.4528 15.6604C18.0961 15.4116 17.8048 15.0802 17.6038 14.6946C17.4029 14.3089 17.2981 13.8804 17.2985 13.4455C17.2985 11.9538 18.5075 10.744 20.0001 10.744C20.2745 10.744 20.5393 10.7849 20.7885 10.8618C19.6806 11.1982 18.8754 12.2283 18.8754 13.4457C18.8754 14.3621 19.3317 15.1726 20.0296 15.6604Z" fill="#F1E2B8"/>
<path d="M25.0464 25.1739C25.7445 24.6855 26.2014 23.8758 26.2014 22.9591C26.2014 21.4669 24.9917 20.257 23.4994 20.257C22.0072 20.257 20.7973 21.4667 20.7973 22.9591C20.7973 23.8758 21.2544 24.6853 21.9523 25.1739C20.7959 25.745 20.0003 26.9356 20.0003 28.3125V29.7705H26.9983V28.3125C26.9984 26.9356 26.2028 25.745 25.0464 25.1739Z" fill="#F1E2B8"/>
<path d="M23.5288 25.1736C22.3726 25.7444 21.5768 26.9355 21.5768 28.3125V29.7705H19.9999V28.3125C19.9999 26.9355 20.7957 25.7444 21.952 25.1736C21.5953 24.9248 21.304 24.5935 21.1031 24.2078C20.9021 23.8222 20.7973 23.3936 20.7978 22.9588C20.7978 21.467 22.0067 20.2572 23.4993 20.2572C23.7737 20.2572 24.0385 20.2981 24.2878 20.3749C23.1798 20.7113 22.3746 21.7414 22.3746 22.9588C22.3742 23.3936 22.4789 23.8222 22.6799 24.2078C22.8809 24.5935 23.1721 24.9248 23.5288 25.1736Z" fill="#F1E2B8"/>
<path d="M29.8594 26.1822V18.9119C32.6873 18.5933 34.8672 16.1894 34.8281 13.2619L36.1297 12.4634C38.4167 10.8897 38.7463 7.61017 36.7578 5.61814C36.3922 5.25408 35.9766 4.95876 35.5156 4.74001C35.2968 4.27921 35.0003 3.85953 34.6391 3.49939C32.66 1.52033 29.3789 1.82829 27.7938 4.12751L25.3906 8.0447C22.6861 4.49236 17.3092 4.49845 14.6094 8.0447L12.2062 4.12751C10.6197 1.82642 7.34109 1.52251 5.36094 3.49939C4.99375 3.86658 4.7 4.2822 4.48437 4.74158C4.025 4.95876 3.60937 5.25251 3.24219 5.61814C1.25453 7.60939 1.58218 10.8889 3.87031 12.4634L5.17187 13.2619C5.13265 16.1931 7.31594 18.5938 10.1406 18.9119V26.1509L2.74843 33.5744C1.66406 34.6588 1.66406 36.4244 2.74843 37.5088C3.8314 38.5917 5.595 38.5966 6.68281 37.5088L10.2891 33.9025C10.5812 34.6244 11.2906 35.1322 12.1156 35.1322H27.8844C28.7094 35.1322 29.4172 34.6244 29.7109 33.9041L33.3172 37.5088C34.4002 38.5917 36.1637 38.5966 37.2516 37.5088C38.3359 36.4244 38.3359 34.6588 37.2516 33.5744L29.8594 26.1822ZM10.1406 32.2838L5.79844 36.6244C5.20156 37.2213 4.22969 37.2228 3.63281 36.6244C3.03594 36.0275 3.03594 35.0556 3.63281 34.4572L10.1406 27.9228V32.2838ZM35.9469 6.58064C37.3003 8.01673 37.0337 10.313 35.4344 11.4244L34.6422 11.9103C34.4984 11.3588 34.2703 10.8416 33.9719 10.3713C35.3323 9.44658 36.0273 7.86751 35.9469 6.58064ZM33.1875 9.39314C32.722 8.83454 31.545 8.09986 30.3203 7.86189L30.9437 6.95564C31.7547 5.77439 33.2109 5.2822 34.5547 5.70408C34.9508 6.97048 34.5627 8.45126 33.1875 9.39314ZM28.8328 4.82439C29.957 3.20736 32.2442 2.97298 33.6719 4.30408C32.2062 4.27439 30.7891 4.97283 29.9125 6.24626L28.8641 7.7697C28.0888 7.82037 27.3326 8.03217 26.6437 8.39158L28.8328 4.82439ZM11.1672 4.82439L13.3562 8.39158C12.6675 8.03198 11.9113 7.82017 11.1359 7.7697L10.0875 6.24626C9.20937 4.97126 7.79375 4.27439 6.32812 4.30408C7.75687 2.97204 10.0439 3.20861 11.1672 4.82439ZM5.35781 11.9103L4.56562 11.4244C2.96578 10.3127 2.70015 8.01611 4.05312 6.58064C3.97234 7.87314 4.67375 9.45064 6.02812 10.3713C5.72615 10.8464 5.50001 11.3656 5.35781 11.9103ZM5.44687 5.70408C6.79219 5.2822 8.24531 5.77439 9.05625 6.95564L9.67969 7.86189C8.57344 8.07751 7.58281 8.62282 6.8125 9.39157C5.43703 8.44954 5.0475 6.96658 5.44687 5.70408ZM29.2344 17.6963C28.8891 17.6963 28.6094 17.9759 28.6094 18.3213V33.1572C28.6094 33.5572 28.2844 33.8822 27.8844 33.8822H12.1156C11.7156 33.8822 11.3906 33.5572 11.3906 33.1572V18.3213C11.3906 17.9759 11.1109 17.6963 10.7656 17.6963C6.81422 17.6963 4.8839 12.7824 7.86406 10.115C9.60469 8.55329 12.238 8.66908 13.85 10.2916C14.1672 10.6155 14.7048 10.4942 14.8734 10.0869C16.7308 5.48986 23.268 5.48673 25.1266 10.0869C25.2955 10.4953 25.8295 10.6153 26.15 10.2916C27.7758 8.65532 30.4109 8.56595 32.1375 10.115C35.1252 12.8039 33.1752 17.6963 29.2344 17.6963ZM36.3672 36.6244C35.7703 37.2228 34.7984 37.2213 34.2016 36.6244L29.8594 32.2822V27.9494L36.3672 34.4588C36.9641 35.0556 36.9641 36.0275 36.3672 36.6244Z" fill="#D0946B"/>
<path d="M26.062 25.0795C27.671 23.1336 26.6037 20.1666 24.1242 19.6931V18.7992C24.1242 17.5147 23.5421 16.3381 22.5628 15.5663C23.0563 14.9699 23.3266 14.2201 23.3271 13.446C23.3271 11.6114 21.8346 10.1191 20.0003 10.1191C18.1659 10.1191 16.6734 11.6116 16.6734 13.446C16.6734 14.228 16.9498 14.9763 17.4378 15.5663C16.4584 16.3381 15.8764 17.5147 15.8764 18.7992V19.6931C13.3974 20.1666 12.3287 23.1328 13.9385 25.0795C12.9592 25.8514 12.3771 27.028 12.3771 28.3125V29.7706C12.3771 29.9364 12.443 30.0954 12.5602 30.2126C12.6774 30.3298 12.8364 30.3956 13.0021 30.3956H26.9985C27.1643 30.3956 27.3233 30.3298 27.4405 30.2126C27.5577 30.0954 27.6235 29.9364 27.6235 29.7706V28.3125C27.6234 27.028 27.0414 25.8514 26.062 25.0795ZM17.1262 18.7991C17.1262 17.6974 17.7407 16.7094 18.7301 16.221C19.1551 16.0113 19.2007 15.4206 18.8117 15.1485C18.5377 14.9569 18.3139 14.7021 18.1592 14.4058C18.0046 14.1094 17.9236 13.7801 17.9232 13.4458C17.9232 12.3005 18.855 11.3689 20.0001 11.3689C21.1453 11.3689 22.077 12.3006 22.077 13.4458C22.077 14.1228 21.7449 14.7592 21.1885 15.1485C20.7989 15.4213 20.846 16.0116 21.2701 16.221C22.2593 16.7094 22.8739 17.6974 22.8739 18.7991V19.6322H17.1259V18.7991H17.1262ZM19.3749 29.1456H13.627V28.3125C13.627 27.2108 14.2415 26.2228 15.2309 25.7344C15.6559 25.5247 15.7015 24.9341 15.3124 24.6619C15.0385 24.4703 14.8147 24.2156 14.66 23.9192C14.5054 23.6228 14.4244 23.2935 14.424 22.9592C14.424 21.8139 15.3557 20.8824 16.5009 20.8824C17.646 20.8824 18.5778 21.8141 18.5778 22.9592C18.5778 23.6363 18.2457 24.2727 17.6893 24.6619C17.2996 24.9347 17.3468 25.525 17.7709 25.7344C18.7601 26.2228 19.3746 27.2108 19.3746 28.3125V29.1456H19.3749ZM19.0635 25.0795C20.052 23.8841 20.1015 22.1363 19.0957 20.8822H20.9046C20.4253 21.4783 20.1667 22.2217 20.1726 22.9866C20.1785 23.7515 20.4484 24.4909 20.9368 25.0795C20.5669 25.371 20.2501 25.7242 20.0003 26.1235C19.7504 25.7242 19.4335 25.371 19.0635 25.0795ZM26.3734 29.1456H20.6254V28.3125C20.6254 27.2108 21.24 26.2228 22.2293 25.7344C22.6543 25.5247 22.6999 24.9341 22.3109 24.6619C22.0369 24.4703 21.8131 24.2156 21.6585 23.9192C21.5038 23.6228 21.4229 23.2935 21.4225 22.9592C21.4225 21.8139 22.3542 20.8824 23.4993 20.8824C24.6445 20.8824 25.5762 21.8141 25.5762 22.9592C25.5762 23.6363 25.2442 24.2727 24.6878 24.6619C24.2981 24.9347 24.3453 25.525 24.7693 25.7344C25.7585 26.2228 26.3731 27.2108 26.3731 28.3125V29.1456H26.3734ZM31.0312 10.5727C30.7751 10.3433 30.3832 10.3655 30.1524 10.6203C29.9217 10.8752 29.9415 11.2697 30.195 11.5019C30.7818 12.0399 31.1285 12.9469 30.7759 13.7911C30.712 13.9441 30.7115 14.1161 30.7744 14.2695C30.8374 14.4228 30.9587 14.5449 31.1117 14.6088C31.2646 14.6727 31.4367 14.6732 31.59 14.6102C31.7434 14.5472 31.8654 14.4259 31.9293 14.273C32.5065 12.891 31.9696 11.4128 31.0312 10.5727ZM29.4718 15.2897C29.4 15.3432 29.3273 15.3955 29.2537 15.4464C29.1196 15.5416 29.0284 15.6858 28.9999 15.8478C28.9715 16.0098 29.008 16.1765 29.1015 16.3117C29.1951 16.447 29.3383 16.5399 29.4999 16.5703C29.6615 16.6007 29.8286 16.5662 29.9649 16.4742C30.0511 16.4146 30.1361 16.3535 30.2201 16.291C30.2865 16.2421 30.3425 16.1805 30.385 16.1099C30.4275 16.0392 30.4556 15.9609 30.4677 15.8793C30.4797 15.7978 30.4756 15.7146 30.4554 15.6347C30.4352 15.5548 30.3994 15.4796 30.35 15.4136C30.3007 15.3476 30.2388 15.292 30.1678 15.25C30.0969 15.208 30.0183 15.1804 29.9367 15.1689C29.8551 15.1574 29.772 15.1621 29.6922 15.1829C29.6124 15.2036 29.5375 15.2399 29.4718 15.2897Z" fill="#D0946B"/>
</svg>
