<svg width="44" height="30" viewBox="0 0 44 30" fill="none" xmlns="http://www.w3.org/2000/svg">
<path d="M15.125 12.8822C15.3073 12.8822 15.4822 12.8098 15.6111 12.6808C15.7401 12.5519 15.8125 12.377 15.8125 12.1947V9.4447C15.8125 8.53302 15.4503 7.65868 14.8057 7.01402C14.161 6.36937 13.2867 6.0072 12.375 6.0072C11.4633 6.0072 10.589 6.36937 9.94432 7.01402C9.29966 7.65868 8.9375 8.53302 8.9375 9.4447V12.1947C8.9375 12.377 9.00993 12.5519 9.13886 12.6808C9.2678 12.8098 9.44266 12.8822 9.625 12.8822H15.125ZM10.3125 9.4447C10.3125 8.89769 10.5298 8.37309 10.9166 7.98629C11.3034 7.5995 11.828 7.3822 12.375 7.3822C12.922 7.3822 13.4466 7.5995 13.8334 7.98629C14.2202 8.37309 14.4375 8.89769 14.4375 9.4447V11.5072H10.3125V9.4447Z" fill="#D0946B"/>
<path d="M43.9157 13.2399C40.4541 6.83073 40.6774 7.06096 40.4309 6.8853C31.307 0.424005 31.6952 0.507192 31.2812 0.507192C11.3279 0.555403 12.3181 0.393497 11.9797 0.632403L8.97059 2.69C8.82007 2.79292 8.7166 2.95142 8.68294 3.13062C8.66627 3.21936 8.66725 3.3105 8.68581 3.39886C8.70436 3.48722 8.74015 3.57106 8.79111 3.64559C8.84206 3.72012 8.90721 3.78388 8.98281 3.83323C9.05841 3.88259 9.14299 3.91657 9.23172 3.93323C9.41093 3.96689 9.59617 3.92798 9.74669 3.82507L12.3706 2.03095L20.763 7.89979L23.375 13.7168V28.0072H19.25C19.25 14.5913 19.3208 15.4656 19.0885 15.19C18.7104 14.7402 18.9222 15.0316 6.1875 14.9447C6.18174 14.9447 6.17607 14.9454 6.17031 14.9456C6.07854 14.9475 5.98811 14.968 5.90442 15.0057C5.83195 15.0388 5.76563 15.0839 5.70831 15.1393C5.64339 15.2021 5.59157 15.2772 5.55587 15.3602C5.52017 15.4432 5.5013 15.5325 5.50034 15.6228C5.49966 15.6795 5.50034 25.1584 5.50034 28.0064H1.375V13.714L3.98793 7.76229L5.20059 6.93308C5.27512 6.88212 5.33887 6.81697 5.38822 6.74137C5.43757 6.66576 5.47154 6.58118 5.4882 6.49245C5.50486 6.40371 5.50387 6.31257 5.48531 6.22421C5.46674 6.13586 5.43095 6.05202 5.37999 5.9775C5.32902 5.90298 5.26388 5.83922 5.18827 5.78987C5.11267 5.74053 5.02809 5.70655 4.93935 5.6899C4.85062 5.67324 4.75947 5.67422 4.67112 5.69279C4.58276 5.71135 4.49893 5.74714 4.42441 5.79811C3.10466 6.73766 2.94259 6.72296 2.80801 7.02985C-0.204961 13.8927 0.0200234 13.3433 0.00378125 13.4978C0.00103125 13.5235 0.000429687 13.561 0 13.5697V28.6947C0 28.877 0.0724328 29.0519 0.201364 29.1808C0.330295 29.3098 0.505164 29.3822 0.6875 29.3822H43.3125C43.4948 29.3822 43.6697 29.3098 43.7986 29.1808C43.9276 29.0519 44 28.877 44 28.6947V13.5697C43.9991 13.4545 43.9702 13.3413 43.9157 13.2399ZM16.9641 16.3197L12.375 21.1638L7.78594 16.3197H16.9641ZM6.875 17.3576L11.428 22.1634L6.875 26.9693V17.3576ZM7.78594 28.0072L12.375 23.1631L16.9641 28.0072H7.78594ZM17.875 26.9693L13.322 22.1634L17.875 17.3576V26.9693ZM23.2727 10.1322H33.6875C33.8698 10.1322 34.0447 10.0598 34.1736 9.93083C34.3026 9.8019 34.375 9.62703 34.375 9.44469C34.375 9.26235 34.3026 9.08749 34.1736 8.95856C34.0447 8.82962 33.8698 8.75719 33.6875 8.75719C30.9738 8.75719 22.71 8.75633 22.656 8.75882C21.927 7.2055 21.9725 7.0674 21.7065 6.88135L20.4565 6.00719H26.8125C26.9948 6.00719 27.1697 5.93476 27.2986 5.80583C27.4276 5.6769 27.5 5.50203 27.5 5.31969C27.5 5.13736 27.4276 4.96249 27.2986 4.83356C27.1697 4.70462 26.9948 4.63219 26.8125 4.63219C18.0434 4.63348 18.5617 4.6291 18.4951 4.63563L14.5578 1.88219H31.061L34.911 4.63219H32.3125C32.1302 4.63219 31.9553 4.70462 31.8264 4.83356C31.6974 4.96249 31.625 5.13736 31.625 5.31969C31.625 5.50203 31.6974 5.6769 31.8264 5.80583C31.9553 5.93476 32.1302 6.00719 32.3125 6.00719C36.6411 5.98141 36.4783 6.06391 36.7383 5.93732L39.5012 7.91079L39.9545 8.75719H36.4375C36.2552 8.75719 36.0803 8.82962 35.9514 8.95856C35.8224 9.08749 35.75 9.26235 35.75 9.44469C35.75 9.62703 35.8224 9.8019 35.9514 9.93083C36.0803 10.0598 36.2552 10.1322 36.4375 10.1322C40.7859 10.1277 40.5631 10.1426 40.6849 10.1207L42.1643 12.8822H24.5075L23.2727 10.1322ZM42.625 28.0072H24.75V14.2572H42.625V28.0072Z" fill="#D0946B"/>
<path d="M6.875 5.3197C7.2547 5.3197 7.5625 5.0119 7.5625 4.6322C7.5625 4.25251 7.2547 3.9447 6.875 3.9447C6.4953 3.9447 6.1875 4.25251 6.1875 4.6322C6.1875 5.0119 6.4953 5.3197 6.875 5.3197Z" fill="#D0946B"/>
<path d="M29.5625 6.0072C29.9422 6.0072 30.25 5.6994 30.25 5.3197C30.25 4.94001 29.9422 4.6322 29.5625 4.6322C29.1828 4.6322 28.875 4.94001 28.875 5.3197C28.875 5.6994 29.1828 6.0072 29.5625 6.0072Z" fill="#D0946B"/>
<path d="M26.8125 22.5072H32.3125C32.4948 22.5072 32.6697 22.4348 32.7986 22.3058C32.9276 22.1769 33 22.002 33 21.8197V17.6947C33 17.5124 32.9276 17.3375 32.7986 17.2086C32.6697 17.0796 32.4948 17.0072 32.3125 17.0072H26.8125C26.6302 17.0072 26.4553 17.0796 26.3264 17.2086C26.1974 17.3375 26.125 17.5124 26.125 17.6947V21.8197C26.125 22.002 26.1974 22.1769 26.3264 22.3058C26.4553 22.4348 26.6302 22.5072 26.8125 22.5072ZM27.5 18.3822H31.625V21.1322H27.5V18.3822ZM35.0625 22.5072H40.5625C40.7448 22.5072 40.9197 22.4348 41.0486 22.3058C41.1776 22.1769 41.25 22.002 41.25 21.8197V17.6947C41.25 17.5124 41.1776 17.3375 41.0486 17.2086C40.9197 17.0796 40.7448 17.0072 40.5625 17.0072H35.0625C34.8802 17.0072 34.7053 17.0796 34.5764 17.2086C34.4474 17.3375 34.375 17.5124 34.375 17.6947V21.8197C34.375 22.002 34.4474 22.1769 34.5764 22.3058C34.7053 22.4348 34.8802 22.5072 35.0625 22.5072ZM35.75 18.3822H39.875V21.1322H35.75V18.3822ZM26.8125 25.2572H32.3125C32.4948 25.2572 32.6697 25.1848 32.7986 25.0558C32.9276 24.9269 33 24.752 33 24.5697C33 24.3874 32.9276 24.2125 32.7986 24.0836C32.6697 23.9546 32.4948 23.8822 32.3125 23.8822H26.8125C26.6302 23.8822 26.4553 23.9546 26.3264 24.0836C26.1974 24.2125 26.125 24.3874 26.125 24.5697C26.125 24.752 26.1974 24.9269 26.3264 25.0558C26.4553 25.1848 26.6302 25.2572 26.8125 25.2572ZM35.0625 25.2572H40.5625C40.7448 25.2572 40.9197 25.1848 41.0486 25.0558C41.1776 24.9269 41.25 24.752 41.25 24.5697C41.25 24.3874 41.1776 24.2125 41.0486 24.0836C40.9197 23.9546 40.7448 23.8822 40.5625 23.8822H35.0625C34.8802 23.8822 34.7053 23.9546 34.5764 24.0836C34.4474 24.2125 34.375 24.3874 34.375 24.5697C34.375 24.752 34.4474 24.9269 34.5764 25.0558C34.7053 25.1848 34.8802 25.2572 35.0625 25.2572Z" fill="#D0946B"/>
</svg>
