<svg width="36" height="37" viewBox="0 0 36 37" fill="none" xmlns="http://www.w3.org/2000/svg">
<path d="M8.54428 29.2179C12.3351 30.3539 16.2944 28.5177 17.9832 25.0732L19.7737 25.5744L19.8102 26.7788L29.5939 29.7038C29.5939 29.7038 30.9896 28.9764 31.304 27.573C31.6336 26.1712 30.9805 25.0793 30.9805 25.0793L21.2044 22.1481L20.6486 23.0882L18.7364 22.5536C19.2103 18.7491 16.9109 15.0389 13.1202 13.912C8.89047 12.6423 4.44061 15.051 3.18005 19.2701C1.9135 23.4922 4.31614 27.9436 8.54428 29.2179ZM4.93579 19.7972C5.9093 16.5486 9.33558 14.6958 12.5993 15.6708C15.8524 16.6473 17.6977 20.0721 16.7257 23.3267C15.7522 26.5783 12.3229 28.4357 9.06219 27.4622C5.81517 26.4872 3.96227 23.0533 4.93579 19.7972ZM0.30365 29.956V31.455H2.01376L9.17308 36.2572H26.8268L33.9845 31.455H35.6962V29.956H0.30365ZM14.6876 13.6965C14.6876 13.6965 17.5883 13.3639 18.17 10.8762C18.7532 8.39004 15.6428 5.83701 15.8509 3.90977C16.097 1.58606 17.5078 0.257202 17.5078 0.257202C17.5078 0.257202 12.5294 2.41686 14.6876 6.23186C16.8442 10.0485 18.17 11.3758 14.6876 13.6965ZM20.5969 13.6965C20.5969 13.6965 23.4993 13.3639 24.0809 10.8762C24.6625 8.38849 21.5522 5.83554 21.7587 3.90822C22.0078 1.58606 23.4172 0.257202 23.4172 0.257202C23.4172 0.257202 18.4419 2.41686 20.5985 6.23186C22.7535 10.0485 24.0809 11.3758 20.5969 13.6965Z" fill="#D0946B"/>
</svg>
